<?xml version="1.0" standalone="no"?>
<!DOCTYPE svg PUBLIC "-//W3C//DTD SVG 20010904//EN"
 "http://www.w3.org/TR/2001/REC-SVG-20010904/DTD/svg10.dtd">
<svg version="1.0" xmlns="http://www.w3.org/2000/svg"
 width="208.000000pt" height="208.000000pt" viewBox="0 0 208.000000 208.000000"
 preserveAspectRatio="xMidYMid meet">
<metadata>
Created by potrace 1.14, written by Peter Selinger 2001-2017
</metadata>
<g transform="translate(0.000000,208.000000) scale(0.100000,-0.100000)"
fill="#000000" stroke="none">
<path d="M353 1912 l-23 -3 0 -562 0 -562 142 -137 143 -136 3 559 2 559 193
2 192 3 -135 138 -135 138 -180 2 c-99 1 -190 1 -202 -1z"/>
<path d="M1370 1912 c-17 -3 -98 -78 -262 -244 l-237 -241 96 -95 96 -94 141
141 c77 77 230 228 339 335 108 106 197 196 197 197 0 5 -336 5 -370 1z"/>
<path d="M720 1279 c-47 -51 -86 -95 -88 -100 -2 -4 146 -156 328 -336 l330
-328 196 -1 196 0 -429 428 c-235 235 -432 428 -438 428 -5 0 -48 -41 -95 -91z"/>
<path d="M340 284 l0 -121 25 0 c23 0 25 3 25 43 0 49 10 55 34 22 35 -51 46
-61 76 -64 16 -2 30 -1 30 3 0 4 -22 32 -49 63 l-49 56 49 55 c27 30 49 56 49
60 0 3 -12 5 -26 5 -19 0 -37 -12 -62 -43 -20 -24 -40 -43 -44 -43 -4 0 -8 19
-8 43 0 39 -2 43 -25 43 l-25 0 0 -122z"/>
<path d="M578 379 c-25 -24 -28 -35 -28 -93 0 -86 24 -118 93 -122 38 -2 52 2
77 22 28 24 30 30 30 94 0 58 -4 73 -24 96 -19 22 -32 28 -72 29 -41 2 -53 -2
-76 -26z m110 -32 c16 -12 16 -109 0 -125 -16 -16 -63 -15 -75 1 -5 6 -11 35
-12 63 -2 44 1 54 19 67 22 15 43 13 68 -6z"/>
<path d="M790 285 c0 -120 0 -122 23 -120 17 1 23 9 25 33 2 18 7 32 13 33 56
6 64 3 65 -25 1 -32 17 -51 36 -43 11 4 14 32 14 122 -1 105 -3 118 -19 121
-24 3 -34 -22 -31 -78 l2 -48 -39 0 -39 0 0 63 c0 61 -1 63 -25 63 l-25 0 0
-121z"/>
<path d="M1013 401 c-5 -3 -9 -14 -9 -23 -2 -15 6 -18 42 -18 l44 0 0 -98 c0
-98 0 -98 25 -98 25 0 25 0 25 98 l0 98 40 0 c39 0 49 11 32 36 -7 11 -185 15
-199 5z"/>
<path d="M1250 400 c0 -3 16 -45 35 -94 41 -103 41 -104 18 -102 -11 0 -19 -7
-21 -21 -3 -19 1 -21 30 -19 18 2 36 4 39 5 4 0 17 27 29 59 13 31 28 66 34
77 16 30 36 89 31 93 -2 2 -11 5 -22 6 -14 2 -24 -12 -44 -63 l-27 -66 -32 67
c-24 50 -37 66 -51 65 -10 -1 -19 -4 -19 -7z"/>
<path d="M1479 401 c-3 -36 1 -223 6 -231 11 -17 37 -11 42 10 4 16 14 20 45
20 45 0 93 22 107 49 26 48 11 113 -32 141 -21 14 -166 23 -168 11z m148 -63
c35 -45 15 -78 -50 -88 l-47 -7 0 54 0 53 44 0 c24 0 48 -6 53 -12z"/>
</g>
</svg>
